<?xml version="1.0" encoding="utf-8"?>
<!-- Generator: Adobe Illustrator 18.0.0, SVG Export Plug-In . SVG Version: 6.00 Build 0)  -->
<!DOCTYPE svg PUBLIC "-//W3C//DTD SVG 1.1//EN" "http://www.w3.org/Graphics/SVG/1.1/DTD/svg11.dtd">
<svg version="1.1" id="Layer_1" xmlns="http://www.w3.org/2000/svg" xmlns:xlink="http://www.w3.org/1999/xlink" x="0px" y="0px"
	 viewBox="0 0 216 36" enable-background="new 0 0 216 36" xml:space="preserve">
<polygon points="0,0.3 0,35.7 5.1,35.7 5.1,20.6 13.8,20.6 13.8,15.8 5.1,15.8 5.1,5.1 15.1,5.1 15.1,0.3 "/>
<path d="M22.2,8.7c0-5.8,4.4-8.7,8.5-8.7c4.1,0,8.5,2.9,8.5,8.7v18.7c0,5.8-4.4,8.7-8.5,8.7c-4.1,0-8.5-2.9-8.5-8.7V8.7z M27.3,27.4
	c0,2.4,1.6,3.6,3.4,3.6c1.8,0,3.4-1.1,3.4-3.6V8.7c0-2.4-1.6-3.6-3.4-3.6c-1.8,0-3.4,1.1-3.4,3.6V27.4z"/>
<path d="M47.4,0.3h8.2c6,0,9,3.5,9,10.4c0,4.1-1.1,7.1-4.4,8.9l5.5,16.2h-5.4l-4.7-15.1h-3v15.1h-5.1L47.4,0.3L47.4,0.3z M52.5,16.1
	h2.9c3.5,0,4.1-2,4.1-5.5c0-3.6-0.6-5.5-4.3-5.5h-2.6V16.1z"/>
<polygon points="72.7,0.3 87.8,0.3 87.8,5.1 77.8,5.1 77.8,15.5 86.6,15.5 86.6,20.3 77.8,20.3 77.8,30.7 87.8,30.7 87.8,35.7 
	72.7,35.7 "/>
<polygon points="106.1,35.7 101.6,35.7 94.4,0.3 99.7,0.3 103.8,25 103.9,25 108,0.3 113.3,0.3 "/>
<polygon points="120.9,0.3 136,0.3 136,5.1 126,5.1 126,15.5 134.7,15.5 134.7,20.3 126,20.3 126,30.7 136,30.7 136,35.7 
	120.9,35.7 "/>
<path d="M143.9,0.3h8.2c6,0,9,3.5,9,10.4c0,4.1-1.1,7.1-4.4,8.9l5.5,16.2h-5.4L152,20.6h-3v15.1h-5.1L143.9,0.3L143.9,0.3z
	 M148.9,16.1h2.9c3.5,0,4.1-2,4.1-5.5c0-3.6-0.6-5.5-4.3-5.5h-2.6L148.9,16.1L148.9,16.1z"/>
<path d="M184.4,31l9.2-17.3c0.9-1.7,0.9-2.7,0.9-4.7c0-1.8,0-3.9-2.5-3.9c-1.5,0-2.5,0.9-2.5,2.5v2.9h-5.1V7.7
	c0-4.2,3.4-7.7,7.6-7.7c5.3,0,7.5,4.2,7.5,8.9c0,3.4-0.1,4.3-1.7,7.4l-7.5,14.4h9.2v5.1h-15.1V31z"/>
<polygon points="210.9,5.7 205.8,5.7 205.8,0.3 210.9,0.3 216,0.3 216,35.7 210.9,35.7 "/>
<rect y="0" fill="none" width="216" height="36"/>
</svg>
